<?xml version="1.0" encoding="utf-8"?>
<!-- Generator: Adobe Illustrator 21.1.0, SVG Export Plug-In . SVG Version: 6.00 Build 0)  -->
<svg version="1.1" id="Layer_1" xmlns="http://www.w3.org/2000/svg" xmlns:xlink="http://www.w3.org/1999/xlink" x="0px" y="0px"
	 viewBox="0 0 160.5 37.7" style="enable-background:new 0 0 160.5 37.7;" xml:space="preserve">
<style type="text/css">
	.st0{fill:#00B4EE;}
	.st1{enable-background:new    ;}
	.st2{fill:#FFFFFF;}
</style>
<path class="st0" d="M34.3,1.6H4.9c-1.7,0-3,1.3-3,3V33c0,1.7,1.3,3,3,3h29.4c1.7,0,3-1.3,3-3V4.6C37.3,2.9,36,1.6,34.3,1.6z
	 M32.5,4.9c0.7,0,1.3,0.6,1.3,1.3s-0.6,1.3-1.3,1.3s-1.3-0.6-1.3-1.3C31.1,5.5,31.7,4.9,32.5,4.9z M28.6,4.9c0.7,0,1.3,0.6,1.3,1.3
	s-0.6,1.3-1.3,1.3c-0.7,0-1.3-0.6-1.3-1.3C27.2,5.5,27.8,4.9,28.6,4.9z M24.6,4.9c0.7,0,1.3,0.6,1.3,1.3s-0.6,1.3-1.3,1.3
	c-0.7,0-1.3-0.6-1.3-1.3C23.3,5.5,23.9,4.9,24.6,4.9z M35.9,32.9c0,0.9-0.7,1.6-1.6,1.6H4.9c-0.9,0-1.6-0.7-1.6-1.6V10.7h32.5v22.2
	H35.9z"/>
<g class="st1">
	<path class="st2" d="M45.4,19.2c-0.4-0.3-0.7-0.7-0.9-1.2c-0.2-0.7-0.4-1.4-0.4-2.3c0-0.9,0.1-1.6,0.2-2.2s0.3-1.2,0.5-1.9l0.2-0.5
		c0.2-0.6,0.4-1,0.5-1.2c0.2-0.6,0.7-1.3,1.3-2.2c0.6-0.9,1.1-1.5,1.4-2c0.3-0.4,0.7-0.8,1.1-1.1c0.4-0.3,0.9-0.7,1.6-1.2
		C51.3,3.2,51.8,3,52.5,3c0.5,0,0.9,0.1,1.3,0.4c0.4,0.2,0.7,0.6,0.9,1.1c0.1,0.2,0.2,0.6,0.2,1c0,0.7-0.2,1.5-0.5,2.3
		s-0.7,1.4-1.2,1.9c-0.1,0.1-0.2,0.2-0.4,0.2c-0.2,0-0.4-0.1-0.6-0.2s-0.4-0.2-0.5-0.4c-0.1-0.2-0.2-0.4-0.2-0.4s0-0.1,0.1-0.1
		c0.1-0.2,0.3-0.5,0.6-0.9c0.3-0.5,0.4-0.8,0.5-1.1l0.1-0.6c0.1-0.4,0.1-0.6,0.1-0.7c0-0.1-0.1-0.2-0.2-0.4c0,0-0.1-0.1-0.2-0.1
		c-0.1,0-0.3,0.1-0.6,0.2c-0.3,0.1-0.7,0.4-1.2,0.9c-0.5,0.4-0.9,1-1.4,1.6c-0.7,0.9-1.2,1.6-1.6,2.2c-0.4,0.6-0.6,1.2-0.8,1.7
		l-0.2,0.6c0,0.1,0,0.2-0.1,0.4s-0.1,0.4-0.2,0.6c-0.2,0.9-0.3,1.6-0.3,2.3c0,0.5,0.1,1,0.2,1.4c0.1,0.4,0.3,0.7,0.5,0.9
		c0.1,0.1,0.3,0.2,0.5,0.2c0.2,0,0.5-0.1,0.8-0.2c0.3-0.1,0.6-0.2,1-0.4s0.6-0.2,0.7-0.3c0.3-0.1,0.7-0.3,1-0.5s0.5-0.3,0.7-0.5
		c0.4-0.3,0.7-0.4,0.9-0.4c0.2-0.1,0.3,0,0.5,0.2c0.1,0.2,0.2,0.4,0.2,0.7c0,0.2-0.1,0.5-0.4,0.7s-0.6,0.5-1,0.8
		c-0.2,0.2-0.5,0.4-1.1,0.6c-0.5,0.3-1,0.6-1.6,0.9c-0.6,0.3-1.2,0.4-1.7,0.4c-0.1,0-0.3,0-0.4,0C46.2,19.8,45.8,19.5,45.4,19.2z"/>
	<path class="st2" d="M55.6,18.2c-0.1-0.1-0.2-0.2-0.4-0.3c-0.3-0.3-0.5-0.6-0.7-1c-0.2-0.3-0.2-0.6-0.2-0.9c0-0.1,0.1-0.2,0.1-0.3
		c0-0.1,0-0.2,0-0.2c-0.1-0.1-0.1-0.1-0.1-0.1c0,0,0,0,0-0.1c0,0,0.1,0,0.1-0.1c0.1,0,0.1-0.1,0.1-0.2c0-0.1,0-0.4,0.2-0.8
		c0.1-0.4,0.3-0.8,0.5-1.1c0.2-0.3,0.4-0.6,0.7-1c0.3-0.4,0.6-0.7,0.8-0.9c0.7-0.6,1.4-1,2-1.1c0.3-0.1,0.6-0.1,0.9-0.1
		c0.4,0,0.8,0.1,1,0.4c0.3,0.1,0.6,0.3,0.7,0.6c0.1,0.2,0.2,0.6,0.3,1c0,0.1,0,0.2,0,0.4c0,1.1-0.4,2.2-1.2,3.4
		c-0.3,0.5-0.7,0.9-1,1.2c-0.3,0.3-0.7,0.6-1.2,0.9c-0.3,0.2-0.5,0.3-0.8,0.4s-0.7,0.1-1.2,0.1C55.8,18.3,55.7,18.3,55.6,18.2z
		 M58.9,14.9c0.1-0.3,0.3-0.7,0.5-1.4c0.1-0.1,0.1-0.4,0.1-0.8c0-0.4-0.1-0.5-0.2-0.6c-0.1-0.1-0.2-0.1-0.3-0.1
		c-0.1,0-0.3,0.1-0.6,0.3c-0.5,0.4-0.9,0.9-1.3,1.4c-0.3,0.5-0.6,1-0.7,1.6c0,0.1,0,0.1,0,0.3c0,0.5,0.2,0.7,0.5,0.7
		c0.3,0,0.8-0.2,1.3-0.7C58.5,15.4,58.7,15.2,58.9,14.9z"/>
	<path class="st2" d="M72.6,17.9c-0.1,0-0.3-0.2-0.5-0.3c-0.2-0.2-0.3-0.4-0.5-0.7c-0.1-0.3-0.2-0.7-0.2-1.1c0-0.3,0-0.5,0.1-0.7
		s0.1-0.3,0.1-0.4c0-0.1,0-0.1-0.1-0.1c-0.4,0-1.2,0.7-2.5,2.1c0,0-0.1,0.1-0.1,0.1c-0.2,0.1-0.3,0.3-0.5,0.4
		c-0.2,0.2-0.4,0.4-0.5,0.5c-0.1,0.1-0.3,0.2-0.5,0.2c-0.1,0-0.2,0-0.3-0.1l-0.2-0.2c-0.1,0-0.1-0.1-0.2-0.2
		c-0.1-0.1-0.1-0.2-0.1-0.3v-0.1v0l0.5-1.5c0.4-0.8,0.6-1.3,0.6-1.4c0,0,0,0,0,0c-0.1,0-0.3,0.1-0.6,0.3c-0.3,0.2-0.6,0.6-1.1,1.1
		l-1,1c-0.1,0.1-0.4,0.5-0.9,1.1c-0.3,0.4-0.5,0.6-0.5,0.6c-0.3,0-0.6-0.1-0.9-0.4c-0.3-0.2-0.4-0.5-0.4-0.9c0-0.2,0-0.4,0.1-0.7
		c0.1-0.3,0.1-0.6,0.2-0.9c0-0.1,0.1-0.2,0.1-0.4s0.1-0.3,0.1-0.5c0-0.1,0.1-0.3,0.1-0.5s0.1-0.4,0.2-0.7c0.1-0.3,0.3-0.7,0.5-1.2
		c0.1-0.2,0.1-0.4,0.1-0.6c0-0.1,0-0.2,0-0.3c0-0.1,0-0.2,0-0.2c0-0.2,0.1-0.4,0.3-0.6c0.2-0.2,0.5-0.2,0.7-0.2
		c0.4,0,0.7,0.1,0.9,0.4c0.2,0.3,0.3,0.6,0.3,0.8c0,0.2-0.1,0.5-0.2,0.7l-0.2,0.6c-0.1,0.1-0.2,0.4-0.3,0.7
		c-0.2,0.3-0.2,0.6-0.2,0.6c0,0,0,0.1,0,0.1h0c0.1,0,0.2-0.1,0.4-0.2c0.5-0.4,1-0.9,1.7-1.4s1.1-0.8,1.4-0.8c0.1,0,0.3,0.1,0.5,0.2
		c0.2,0.1,0.4,0.3,0.5,0.5c0.1,0.2,0.2,0.4,0.2,0.6l0,0.2c0,0.1-0.1,0.3-0.2,0.7c-0.1,0.4-0.2,0.7-0.3,0.8c0.3-0.3,0.8-0.7,1.5-1.2
		s1.2-0.7,1.5-0.7c0.5,0,0.8,0.2,0.9,0.6c0.1,0.4,0.2,1,0.3,1.7c0.1,0.7,0.1,1.2,0.2,1.5c0,0.1,0.1,0.2,0.3,0.2
		c0.2,0.1,0.3,0.1,0.4,0.2c0.1,0.1,0.2,0.2,0.2,0.5c0,0.3-0.1,0.5-0.4,0.7c-0.3,0.1-0.6,0.2-1,0.2C72.8,18,72.7,18,72.6,17.9z"/>
	<path class="st2" d="M73.9,23.6c-0.1,0-0.3-0.1-0.3-0.2c0,0-0.1-0.1-0.2-0.3c-0.1-0.2-0.2-0.4-0.2-0.7c0-0.1,0-0.2,0-0.4
		c0.2-0.6,0.2-1,0.2-1.3c0-0.1,0-0.2,0-0.3c0-0.1,0.1-0.3,0.1-0.4c0.1-0.1,0.1-0.3,0.2-0.5c0.1-0.2,0.1-0.4,0.1-0.6
		c0-0.1,0-0.2,0.1-0.3c0.1-0.1,0.1-0.2,0.2-0.2c0-0.1,0-0.2,0.1-0.4c0-0.2,0.1-0.3,0.1-0.4c0.1-0.4,0.4-1.3,0.9-2.8
		c0.5-1.5,0.9-2.7,1.3-3.6c0.2-0.4,0.3-0.8,0.4-1.1c0.1-0.4,0.2-0.6,0.2-0.7c0-0.1,0-0.1,0.1-0.2c0-0.1,0.1-0.1,0.2-0.2
		C77.4,9,77.6,9,77.8,9c0.2,0,0.5,0.1,0.7,0.2c0.1,0.2,0.2,0.3,0.2,0.4s0.1,0.2,0.1,0.4c0,0,0,0.2,0,0.4c0,0.3-0.1,0.6-0.3,0.8
		c-0.2,0.2-0.3,0.4-0.2,0.4c0.7-0.4,1.4-0.7,2-0.7c0.7,0,1.2,0.2,1.6,0.7c0.4,0.5,0.6,1,0.6,1.6c0,0.2-0.1,0.6-0.4,1.1
		c-0.2,0.5-0.4,0.8-0.6,0.9c-0.1,0-0.2,0.2-0.4,0.5c-0.2,0.2-0.5,0.5-1,0.7c-0.5,0.3-0.8,0.4-1,0.3c0,0,0,0-0.1,0.1c0,0,0,0.1,0,0.1
		s-0.2,0.2-0.7,0.3s-0.8,0.2-1.1,0.2c-0.2,0-0.3,0-0.4,0c-0.1,0-0.2-0.1-0.3-0.1c-0.1,0.1-0.2,0.2-0.2,0.3c0,0.1-0.1,0.4-0.2,0.7
		c-0.1,0.3-0.3,0.5-0.4,0.5c0,0,0,0-0.1,0.1s0,0.1,0.1,0.2c0,0,0,0.1,0,0.3c0,0.2-0.1,0.3-0.1,0.4c0,0.1,0,0.3-0.1,0.5
		s-0.1,0.4-0.2,0.5c0,0.2,0,0.3-0.1,0.5c-0.1,0.2-0.1,0.3-0.2,0.3c-0.1,0-0.1,0.2-0.1,0.6c0,0.4-0.1,0.7-0.3,0.9
		c-0.2,0.3-0.4,0.4-0.6,0.4L73.9,23.6z M78.1,15.6c0.6-0.2,1-0.5,1.2-0.7c0.3-0.3,0.6-0.5,0.8-0.8c0.2-0.2,0.3-0.5,0.3-0.7
		c0-0.2-0.1-0.4-0.2-0.6c-0.1-0.2-0.3-0.2-0.5-0.2c-0.5,0-1.1,0.4-1.9,1.1c-0.3,0.3-0.5,0.6-0.7,1c-0.2,0.4-0.3,0.7-0.3,1
		c0,0.1,0,0.2,0.1,0.2C77.2,15.9,77.6,15.8,78.1,15.6z"/>
	<path class="st2" d="M89.2,17.9c0,0,0-0.5,0-1.5c0-0.3,0-0.5,0.1-0.8c0-0.3,0-0.5,0-0.7v-0.1v-0.2c0-0.3-0.1-0.4-0.3-0.4
		c-0.3,0-0.8,0.3-1.5,0.8c-0.7,0.5-1.5,1.1-2.2,1.8c-0.2,0.2-0.4,0.5-0.6,0.7c-0.1,0.2-0.3,0.3-0.3,0.4c-0.1,0-0.2,0.1-0.4,0.1
		c-0.2,0-0.4-0.2-0.7-0.5c-0.3-0.3-0.4-0.5-0.5-0.7c0-0.4,0.1-0.8,0.2-1.2s0.4-0.8,0.7-1.4c0.1-0.4,0.3-0.9,0.5-1.3
		c0.2-0.5,0.4-0.9,0.5-1.2c0.1-0.3,0.2-0.6,0.2-0.8c0,0,0,0,0,0c0-0.1,0-0.1,0.1-0.2s0.1-0.1,0.2-0.1c0,0,0.1-0.1,0.3-0.1
		c0.4,0,0.7,0.1,1,0.3c0.3,0.2,0.4,0.5,0.4,0.9c0,0.2,0,0.4-0.1,0.6c-0.1,0.2-0.2,0.5-0.5,1L86,13.7c0,0.1-0.1,0.2-0.2,0.4
		c-0.1,0.2-0.1,0.3-0.1,0.3c0.4-0.2,0.8-0.6,1.3-1c0.7-0.6,1.3-1,1.8-1.4c0.5-0.3,0.8-0.5,1-0.5c0.2,0,0.5,0.1,0.8,0.3
		c0.3,0.2,0.5,0.4,0.6,0.6c0,0.1,0,0.3,0,0.5c0,0.2,0,0.4-0.1,0.6l0,0.7c0,0.1,0,0.3,0,0.5c0,0.5,0,0.8-0.1,1c0,0,0,0,0,0.1
		s0,0.1,0,0.1l0,0c0,0.1,0.1,0.4,0.2,0.7c0.1,0.3,0.2,0.5,0.2,0.5c0,0.2-0.1,0.3-0.3,0.5c-0.2,0.2-0.4,0.3-0.6,0.3
		C89.7,17.9,89.2,17.9,89.2,17.9z"/>
	<path class="st2" d="M93.4,17.7c-0.2-0.1-0.3-0.2-0.3-0.3c0-0.1,0-0.1-0.1-0.3s-0.1-0.2-0.2-0.3c-0.1-0.1,0-0.5,0.2-1.1
		c0.3-0.6,0.7-1.4,1.1-2.3c0.1-0.1,0.2-0.2,0.3-0.5c0.1-0.2,0.2-0.3,0.3-0.4c0-0.1,0-0.1,0.1-0.2c0-0.1,0.1-0.1,0.2-0.1l0.2-0.4
		c0.1-0.1,0.3-0.4,0.9-0.9c0.5-0.5,0.9-0.8,1.2-1c0.3-0.2,0.6-0.3,0.9-0.3c0.4,0,0.7,0.1,0.9,0.3l0.6,0.5c0.4,0.4,0.7,0.6,0.7,0.6
		l0.8,0.7l-0.4,1.1c-0.1,0.4-0.2,0.8-0.2,1.1c0,0.6,0.2,1.1,0.5,1.6c0.1,0.2,0.2,0.3,0.3,0.4c0.1,0.1,0.3,0.1,0.5,0.2
		c0.3,0.1,0.5,0.2,0.5,0.5c0,0.3-0.1,0.6-0.2,0.7s-0.3,0.3-0.4,0.3c-0.2,0-0.4,0-0.5,0c-0.4,0-0.8-0.1-1.2-0.3
		c-0.4-0.2-0.7-0.6-0.9-1.1c-0.1-0.1-0.1-0.2-0.2-0.5c-0.1-0.2-0.2-0.4-0.2-0.5c-0.1,0.1-0.3,0.3-0.5,0.6c-1.5,1.5-2.7,2.3-3.7,2.3
		c-0.3,0-0.6-0.1-0.9-0.2C93.7,17.9,93.6,17.8,93.4,17.7z M96.3,15.4c0.1-0.1,0.2-0.1,0.2-0.2c0.1-0.1,0.2-0.2,0.3-0.3
		c0.4-0.3,0.7-0.6,1-0.8s0.5-0.5,0.7-0.8l0.5-0.8c-0.1-0.3-0.3-0.5-0.4-0.6c-0.1-0.1-0.2-0.2-0.4-0.2c-0.3,0-0.7,0.3-1.1,0.8
		s-1,1.3-1.6,2.4c-0.2,0.3-0.3,0.5-0.4,0.8c-0.1,0.3-0.2,0.5-0.2,0.6C95.2,16.2,95.6,16,96.3,15.4z"/>
	<path class="st2" d="M109.5,10.9c0.1,0.1,0.1,0.3,0.1,0.5c0,0.3-0.1,0.7-0.4,1.1c-0.1,0.3-0.2,0.7-0.4,0.9
		c-0.1,0.3-0.2,0.5-0.3,0.6l-0.5,1.2c-0.2,0.5-0.5,1-0.8,1.7c-0.4,0.8-0.7,1.4-0.8,1.8l-0.3,0.5c-0.7,1.2-1.3,2-1.7,2.5
		c-0.3,0.3-0.7,0.6-1.1,0.9s-0.8,0.5-1.1,0.5c-0.3,0.1-0.6,0.1-0.9,0.1c-0.6,0-1.1-0.1-1.6-0.3c-0.5-0.2-0.7-0.5-0.8-0.7l0-0.3
		c0-0.2,0.1-0.4,0.3-0.6c0.2-0.1,0.4-0.2,0.6-0.2c0.1,0,0.3,0,0.3,0.1c0,0,0.1,0.1,0.4,0.2c0.2,0.1,0.5,0.2,0.8,0.2
		c0.7,0,1.3-0.4,1.9-1.3c0.6-1,1.1-1.8,1.4-2.4c-0.3-0.2-0.6-0.5-0.9-0.9s-0.4-0.7-0.4-0.9V16c-0.1,0-0.2-0.2-0.3-0.7
		c-0.1-0.4-0.1-1-0.1-1.6c0-0.7,0-1.2,0-1.5c0.1-0.2,0.1-0.5,0.1-0.9c0-0.3,0-0.6,0-0.7c0-0.2,0-0.4,0.1-0.5
		c0.1-0.2,0.2-0.3,0.3-0.3c0.2-0.1,0.3-0.1,0.5-0.1c0.7,0,1,0.7,1,2.2c0,0.3,0,0.5,0,0.6c0,0.7,0,1.2,0,1.5c0,1.1,0.2,1.9,0.5,2.2
		c0.1-0.3,0.2-0.5,0.3-0.7c0.2-0.4,0.3-0.7,0.4-0.8c0-0.1,0.1-0.3,0.2-0.5l0.3-0.6c0-0.1,0.1-0.4,0.3-0.8c0.2-0.5,0.3-0.9,0.5-1.2
		c0.1-0.1,0.1-0.3,0.3-0.5c0.1-0.2,0.2-0.4,0.3-0.5c0.1-0.1,0.2-0.2,0.2-0.2c0.1-0.1,0.2-0.2,0.4-0.2s0.3,0,0.4,0.1
		C109.3,10.6,109.4,10.8,109.5,10.9z"/>
	<path class="st2" d="M114.9,19.2c0-0.2,0.1-0.5,0.2-0.9c0.1-0.5,0.3-1,0.5-1.5c0.1-0.3,0.2-0.6,0.4-0.9c0.1-0.3,0.2-0.7,0.3-1.1
		c0.3-0.7,0.6-1.3,0.8-2s0.4-1,0.4-1.2c0-0.1,0.3-0.7,0.7-1.7l0.4-0.8c0.4-1,0.7-1.8,1-2.4s0.7-1.2,1.1-1.9c0.2-0.4,0.6-0.6,1.1-0.6
		c0.3,0,0.5,0.1,0.7,0.2c0.2,0.1,0.4,0.3,0.4,0.5c0.1,0.3,0.2,0.6,0.3,1c0.1,0.4,0.1,1,0.1,2c0,0.3,0,0.7,0,1.3
		c0,1.2,0.1,2.2,0.1,2.8c0,0.6,0.1,1.2,0.3,1.7c0.1,0.6,0.1,1,0.2,1.2c0.1,0.7,0.2,1.2,0.2,1.6c0.1,0.4,0.1,0.6,0.2,0.6
		c0.2,0,0.4-0.4,0.7-1.2s0.8-2.5,1.4-5.1c0.1-0.3,0.2-0.7,0.3-1.3c0.1-0.6,0.2-1.1,0.3-1.6c0.2-0.6,0.3-1.2,0.5-1.9
		c0.2-0.7,0.2-1,0.2-1.1c0-0.1,0-0.1,0-0.2c0-0.1,0-0.2,0-0.3c0.1,0,0.1-0.1,0.2-0.3c0.1-0.2,0.1-0.4,0.1-0.5c0-0.4,0.1-0.7,0.3-0.9
		c0.2-0.3,0.4-0.4,0.7-0.4c0.2,0,0.5,0.1,0.7,0.2c0.2,0.2,0.3,0.3,0.4,0.5c0,0.3-0.2,1.4-0.6,3.4c0,0.2-0.1,0.7-0.3,1.6
		c-0.1,0.5-0.2,1-0.3,1.4c-0.1,0.4-0.1,0.8-0.2,1.1c-0.1,0.3-0.2,0.5-0.2,0.4c-0.6,2.6-1.4,4.9-2.3,7.1c-0.2,0.5-0.5,0.9-0.8,1.2
		c-0.3,0.3-0.6,0.4-1,0.4c-0.4,0-0.8-0.2-1.1-0.6c-0.4-0.6-0.8-1.2-1-1.7c-0.2-0.6-0.4-1.4-0.5-2.6c-0.3-1.6-0.4-3.3-0.4-4.9V9.1
		c0-1-0.1-1.5-0.2-1.5c-0.1,0-0.2,0.1-0.3,0.4c-0.1,0.3-0.3,0.7-0.4,1.2c-0.1,0.2-0.4,1.1-1,2.6l-0.4,1c-0.3,0.5-0.5,1.1-0.6,1.6
		c-0.5,1.2-0.8,2.2-1.1,3.1s-0.4,1.4-0.4,1.5c0,0.2-0.1,0.3-0.1,0.5c0,0.1-0.1,0.3-0.1,0.4c-0.1,0.3-0.2,0.5-0.3,0.6
		c-0.1,0.1-0.2,0.2-0.3,0.2c-0.1,0-0.3-0.1-0.6-0.2C115.1,20.1,114.9,19.7,114.9,19.2z"/>
	<path class="st2" d="M129.2,17.7c-0.2-0.1-0.3-0.2-0.3-0.3c0-0.1,0-0.1-0.1-0.3s-0.1-0.2-0.2-0.3c-0.1-0.1,0-0.5,0.2-1.1
		c0.3-0.6,0.7-1.4,1.1-2.3c0.1-0.1,0.2-0.2,0.3-0.5c0.1-0.2,0.2-0.3,0.3-0.4c0-0.1,0-0.1,0.1-0.2c0-0.1,0.1-0.1,0.2-0.1L131,12
		c0.1-0.1,0.3-0.4,0.9-0.9c0.5-0.5,0.9-0.8,1.2-1c0.3-0.2,0.6-0.3,0.9-0.3c0.4,0,0.7,0.1,0.9,0.3l0.6,0.5c0.4,0.4,0.7,0.6,0.7,0.6
		l0.8,0.7l-0.4,1.1c-0.1,0.4-0.2,0.8-0.2,1.1c0,0.6,0.2,1.1,0.5,1.6c0.1,0.2,0.2,0.3,0.3,0.4c0.1,0.1,0.3,0.1,0.5,0.2
		c0.3,0.1,0.5,0.2,0.5,0.5c0,0.3-0.1,0.6-0.2,0.7s-0.3,0.3-0.4,0.3c-0.2,0-0.4,0-0.5,0c-0.4,0-0.8-0.1-1.2-0.3
		c-0.4-0.2-0.7-0.6-0.9-1.1c-0.1-0.1-0.1-0.2-0.2-0.5c-0.1-0.2-0.2-0.4-0.2-0.5c-0.1,0.1-0.3,0.3-0.5,0.6c-1.5,1.5-2.7,2.3-3.7,2.3
		c-0.3,0-0.6-0.1-0.9-0.2C129.5,17.9,129.4,17.8,129.2,17.7z M132.1,15.4c0.1-0.1,0.2-0.1,0.2-0.2c0.1-0.1,0.2-0.2,0.3-0.3
		c0.4-0.3,0.7-0.6,1-0.8s0.5-0.5,0.7-0.8l0.5-0.8c-0.1-0.3-0.3-0.5-0.4-0.6c-0.1-0.1-0.2-0.2-0.4-0.2c-0.3,0-0.7,0.3-1.1,0.8
		s-1,1.3-1.6,2.4c-0.2,0.3-0.3,0.5-0.4,0.8c-0.1,0.3-0.2,0.5-0.2,0.6C131,16.2,131.4,16,132.1,15.4z"/>
	<path class="st2" d="M148.9,17.9c-0.1,0-0.3-0.2-0.5-0.3c-0.2-0.2-0.3-0.4-0.5-0.7c-0.1-0.3-0.2-0.7-0.2-1.1c0-0.3,0-0.5,0.1-0.7
		c0-0.2,0.1-0.3,0.1-0.4c0-0.1,0-0.1-0.1-0.1c-0.4,0-1.2,0.7-2.5,2.1c0,0-0.1,0.1-0.1,0.1c-0.2,0.1-0.3,0.3-0.5,0.4
		c-0.2,0.2-0.4,0.4-0.5,0.5c-0.1,0.1-0.3,0.2-0.5,0.2c-0.1,0-0.2,0-0.3-0.1l-0.2-0.2c-0.1,0-0.1-0.1-0.2-0.2
		c-0.1-0.1-0.1-0.2-0.1-0.3v-0.1v0l0.5-1.5c0.4-0.8,0.6-1.3,0.6-1.4c0,0,0,0,0,0c-0.1,0-0.3,0.1-0.6,0.3s-0.6,0.6-1.1,1.1l-1,1
		c-0.1,0.1-0.4,0.5-0.9,1.1c-0.3,0.4-0.5,0.6-0.5,0.6c-0.3,0-0.6-0.1-0.9-0.4c-0.3-0.2-0.4-0.5-0.4-0.9c0-0.2,0-0.4,0.1-0.7
		c0.1-0.3,0.1-0.6,0.2-0.9c0-0.1,0.1-0.2,0.1-0.4c0-0.1,0.1-0.3,0.1-0.5c0-0.1,0.1-0.3,0.1-0.5c0-0.2,0.1-0.4,0.2-0.7
		s0.3-0.7,0.5-1.2c0.1-0.2,0.1-0.4,0.1-0.6c0-0.1,0-0.2,0-0.3s0-0.2,0-0.2c0-0.2,0.1-0.4,0.3-0.6s0.5-0.2,0.7-0.2
		c0.4,0,0.7,0.1,0.9,0.4c0.2,0.3,0.3,0.6,0.3,0.8c0,0.2-0.1,0.5-0.2,0.7l-0.2,0.6c-0.1,0.1-0.2,0.4-0.3,0.7
		c-0.2,0.3-0.2,0.6-0.2,0.6c0,0,0,0.1,0,0.1h0c0.1,0,0.2-0.1,0.4-0.2c0.5-0.4,1-0.9,1.7-1.4c0.7-0.5,1.1-0.8,1.4-0.8
		c0.1,0,0.3,0.1,0.5,0.2c0.2,0.1,0.4,0.3,0.5,0.5c0.1,0.2,0.2,0.4,0.2,0.6l0,0.2c0,0.1-0.1,0.3-0.2,0.7c-0.1,0.4-0.2,0.7-0.3,0.8
		c0.3-0.3,0.8-0.7,1.5-1.2s1.2-0.7,1.5-0.7c0.5,0,0.8,0.2,0.9,0.6c0.1,0.4,0.2,1,0.3,1.7c0.1,0.7,0.1,1.2,0.2,1.5
		c0,0.1,0.1,0.2,0.3,0.2c0.2,0.1,0.3,0.1,0.4,0.2c0.1,0.1,0.2,0.2,0.2,0.5c0,0.3-0.1,0.5-0.4,0.7s-0.6,0.2-1,0.2
		C149.2,18,149,18,148.9,17.9z"/>
	<path class="st2" d="M152,17.8c-0.5-0.5-0.8-1.1-0.8-2c0-0.3,0-0.7,0.1-1.1c0-0.4,0.2-0.8,0.4-1.5s0.6-1.2,1.1-1.8
		c0.4-0.6,1-1,1.6-1.3c0.3-0.1,0.5-0.2,0.7-0.3c0.2-0.1,0.4-0.1,0.7-0.1c0.6,0,1.1,0.1,1.5,0.3c0.4,0.2,0.6,0.5,0.8,0.7
		c0.2,0.3,0.2,0.5,0.2,0.7v0.1v0.1c0,0.2-0.1,0.5-0.3,1c-0.2,0.5-0.5,0.9-1,1.3s-1,0.6-1.7,0.7c-0.4,0-0.7,0-1-0.1
		c-0.3-0.1-0.5-0.1-0.6-0.1c-0.2,0-0.4,0.1-0.4,0.2c-0.1,0.2-0.1,0.4-0.1,0.8c0,0.4,0.2,0.7,0.3,0.9c0.2,0.2,0.5,0.2,0.8,0.2
		c0.2,0,0.4-0.1,0.6-0.2c0.2-0.1,0.5-0.3,0.8-0.5c0.2-0.1,0.3-0.2,0.4-0.3s0.2-0.1,0.4-0.1c0.1,0,0.3,0.1,0.5,0.3s0.3,0.3,0.3,0.5
		c0,0.2-0.2,0.4-0.5,0.8c-0.3,0.4-0.7,0.7-1.1,0.9c-0.5,0.3-1,0.4-1.5,0.4C153.2,18.5,152.5,18.3,152,17.8z M155.4,13.1
		c0.1-0.1,0.4-0.3,0.7-0.6c0.3-0.3,0.5-0.5,0.5-0.6c0-0.1-0.1-0.3-0.2-0.4c-0.1-0.1-0.3-0.2-0.5-0.2h-0.2c-0.2,0-0.5,0.2-0.8,0.5
		c-0.4,0.3-0.7,0.7-0.9,1.1c0,0.1,0.1,0.1,0.3,0.2s0.4,0.1,0.7,0.1C155.1,13.2,155.3,13.2,155.4,13.1z"/>
</g>
<g class="st1">
	<path class="st2" d="M49,27v0.7h-1.6v4.9h-0.9v-4.9h-1.6V27H49z"/>
	<path class="st2" d="M55.1,31.4h-2.4l-0.4,1.2h-1l2.1-5.6h1l2.1,5.6h-1L55.1,31.4z M54.8,30.7L53.9,28l-0.9,2.6H54.8z"/>
	<path class="st2" d="M63.4,27.4c0.4,0.3,0.7,0.8,0.9,1.4h-1c-0.1-0.3-0.3-0.5-0.6-0.7c-0.3-0.2-0.6-0.3-1-0.3
		c-0.4,0-0.7,0.1-0.9,0.2c-0.3,0.2-0.5,0.4-0.7,0.7c-0.2,0.3-0.2,0.7-0.2,1.1c0,0.4,0.1,0.8,0.2,1.1s0.4,0.5,0.7,0.7
		c0.3,0.2,0.6,0.2,1,0.2c0.5,0,0.9-0.1,1.2-0.4c0.3-0.3,0.5-0.7,0.6-1.2h-2.1v-0.7h2.8v0.9c-0.1,0.4-0.2,0.8-0.4,1.1
		c-0.2,0.3-0.5,0.6-0.9,0.8c-0.4,0.2-0.8,0.3-1.3,0.3c-0.5,0-1-0.1-1.5-0.4c-0.4-0.2-0.7-0.6-1-1S59,30.4,59,29.8
		c0-0.6,0.1-1.1,0.3-1.5c0.2-0.4,0.6-0.8,1-1c0.4-0.2,0.9-0.4,1.5-0.4C62.4,26.9,63,27.1,63.4,27.4z"/>
	<path class="st2" d="M68.2,31.9h2v0.7h-2.9V27h0.9V31.9z"/>
	<path class="st2" d="M73.8,27v5.6h-0.9V27H73.8z"/>
	<path class="st2" d="M81.5,32.6h-0.9l-2.7-4.2v4.2h-0.9V27h0.9l2.7,4.2V27h0.9V32.6z"/>
	<path class="st2" d="M85.5,27.7v1.7h2.1v0.7h-2.1v1.8h2.3v0.7h-3.2V27h3.2v0.7H85.5z"/>
	<path class="st2" d="M98.9,27.4c0.4,0.3,0.7,0.8,0.9,1.4h-1c-0.1-0.3-0.3-0.5-0.6-0.7c-0.3-0.2-0.6-0.3-1-0.3
		c-0.4,0-0.7,0.1-0.9,0.2c-0.3,0.2-0.5,0.4-0.7,0.7c-0.2,0.3-0.2,0.7-0.2,1.1c0,0.4,0.1,0.8,0.2,1.1s0.4,0.5,0.7,0.7
		c0.3,0.2,0.6,0.2,1,0.2c0.5,0,0.9-0.1,1.2-0.4c0.3-0.3,0.5-0.7,0.6-1.2H97v-0.7h2.8v0.9c-0.1,0.4-0.2,0.8-0.4,1.1
		c-0.2,0.3-0.5,0.6-0.9,0.8c-0.4,0.2-0.8,0.3-1.3,0.3c-0.5,0-1-0.1-1.5-0.4c-0.4-0.2-0.7-0.6-1-1s-0.3-0.9-0.3-1.5
		c0-0.6,0.1-1.1,0.3-1.5c0.2-0.4,0.6-0.8,1-1c0.4-0.2,0.9-0.4,1.5-0.4C97.8,26.9,98.4,27.1,98.9,27.4z"/>
	<path class="st2" d="M106.8,27.3c0.4,0.2,0.8,0.6,1,1c0.2,0.4,0.4,0.9,0.4,1.5s-0.1,1.1-0.4,1.5c-0.2,0.4-0.6,0.8-1,1
		s-0.9,0.4-1.4,0.4c-0.5,0-1-0.1-1.4-0.4c-0.4-0.2-0.8-0.6-1-1c-0.2-0.4-0.4-0.9-0.4-1.5s0.1-1.1,0.4-1.5c0.2-0.4,0.6-0.8,1-1
		c0.4-0.2,0.9-0.4,1.4-0.4C105.9,26.9,106.4,27,106.8,27.3z M104.4,28c-0.3,0.2-0.5,0.4-0.7,0.7s-0.2,0.7-0.2,1.1
		c0,0.4,0.1,0.8,0.2,1.1s0.4,0.5,0.7,0.7c0.3,0.2,0.6,0.2,1,0.2c0.4,0,0.7-0.1,1-0.2c0.3-0.2,0.5-0.4,0.7-0.7s0.2-0.7,0.2-1.1
		c0-0.4-0.1-0.8-0.2-1.1s-0.4-0.5-0.7-0.7c-0.3-0.2-0.6-0.2-1-0.2C105,27.7,104.7,27.8,104.4,28z"/>
	<path class="st2" d="M112,27.7v1.7h2.1v0.7H112v1.8h2.3v0.7h-3.2V27h3.2v0.7H112z"/>
	<path class="st2" d="M120.7,31.9c-0.1,0.2-0.3,0.4-0.6,0.6c-0.3,0.1-0.6,0.2-1,0.2c-0.4,0-0.7-0.1-1-0.2c-0.3-0.1-0.5-0.3-0.7-0.6
		s-0.3-0.5-0.3-0.8h1c0,0.2,0.1,0.5,0.3,0.6c0.2,0.2,0.4,0.3,0.7,0.3c0.3,0,0.5-0.1,0.6-0.2c0.2-0.1,0.2-0.3,0.2-0.6
		c0-0.2-0.1-0.4-0.2-0.5s-0.3-0.2-0.4-0.3c-0.2-0.1-0.4-0.2-0.7-0.3c-0.4-0.1-0.6-0.2-0.9-0.3s-0.4-0.3-0.6-0.5
		c-0.2-0.2-0.2-0.5-0.2-0.8c0-0.3,0.1-0.6,0.2-0.8s0.4-0.4,0.6-0.5c0.3-0.1,0.6-0.2,1-0.2c0.6,0,1,0.1,1.4,0.4s0.5,0.6,0.6,1.1h-1
		c0-0.2-0.1-0.4-0.3-0.5c-0.2-0.2-0.4-0.2-0.7-0.2c-0.3,0-0.5,0.1-0.6,0.2s-0.2,0.3-0.2,0.6c0,0.2,0.1,0.4,0.2,0.5
		c0.1,0.1,0.2,0.2,0.4,0.3s0.4,0.2,0.7,0.3c0.4,0.1,0.6,0.2,0.9,0.3c0.2,0.1,0.4,0.3,0.6,0.5s0.2,0.5,0.2,0.9
		C120.9,31.4,120.9,31.6,120.7,31.9z"/>
	<path class="st2" d="M132.2,27v5.6h-0.9v-2.5h-2.7v2.5h-0.9V27h0.9v2.4h2.7V27H132.2z"/>
	<path class="st2" d="M136.2,27.7v1.7h2.1v0.7h-2.1v1.8h2.3v0.7h-3.2V27h3.2v0.7H136.2z"/>
	<path class="st2" d="M144.4,32.6l-1.4-2.3h-0.6v2.3h-0.9V27h2c0.6,0,1.1,0.2,1.5,0.5s0.5,0.7,0.5,1.2c0,0.4-0.1,0.8-0.4,1.1
		c-0.2,0.3-0.6,0.5-1.1,0.5l1.5,2.3H144.4z M142.3,29.7h1c0.7,0,1.1-0.3,1.1-1c0-0.3-0.1-0.6-0.3-0.7c-0.2-0.2-0.5-0.3-0.8-0.3h-1
		V29.7z"/>
	<path class="st2" d="M149.1,27.7v1.7h2.1v0.7h-2.1v1.8h2.3v0.7h-3.2V27h3.2v0.7H149.1z"/>
</g>
<path class="st0" d="M27.3,14.7H13.1c-0.2,0-0.5,0.1-0.6,0.4c-0.1,0.2-0.1,0.5,0.1,0.7l5.2,7.3l0,0c0.2,0.3,0.3,0.6,0.3,0.9v6
	c0,0.2,0.1,0.3,0.2,0.5s0.3,0.2,0.5,0.2c0.1,0,0.2,0,0.3-0.1l2.9-1.1c0.3-0.1,0.4-0.3,0.4-0.6v-4.8c0-0.3,0.1-0.6,0.3-0.9l0,0
	l5.2-7.3c0.1-0.2,0.2-0.5,0.1-0.7C27.8,14.8,27.5,14.7,27.3,14.7L27.3,14.7z M22,22.6c-0.3,0.4-0.4,0.9-0.4,1.4v4.7l-2.7,1v-5.8
	c0-0.5-0.2-1-0.4-1.4l-5-7.1H27L22,22.6z"/>
</svg>
