<svg width="667" height="123" xmlns="http://www.w3.org/2000/svg"><g fill="#338EEF" fill-rule="nonzero" opacity=".3"><circle cx="8" cy="8" r="8"/><circle cx="28" cy="28" r="8"/><circle cx="50" cy="50" r="8"/><circle cx="70" cy="70" r="8"/><circle cx="89" cy="50" r="8"/><circle cx="108" cy="28" r="8"/><circle cx="131" cy="8" r="8"/><circle cx="131" cy="53" r="8"/><circle cx="8" cy="53" r="8"/><circle cx="28" cy="73" r="8"/><circle cx="50" cy="95" r="8"/><circle cx="70" cy="115" r="8"/><circle cx="89" cy="95" r="8"/><circle cx="108" cy="73" r="8"/><circle cx="274" cy="8" r="8"/><circle cx="293" cy="28" r="8"/><circle cx="312" cy="50" r="8"/><circle cx="335" cy="70" r="8"/><circle cx="354" cy="50" r="8"/><circle cx="374" cy="28" r="8"/><circle cx="397" cy="8" r="8"/><circle cx="397" cy="53" r="8"/><circle cx="274" cy="53" r="8"/><circle cx="293" cy="73" r="8"/><circle cx="312" cy="95" r="8"/><circle cx="335" cy="115" r="8"/><circle cx="354" cy="95" r="8"/><circle cx="374" cy="73" r="8"/><circle cx="536" cy="8" r="8"/><circle cx="558" cy="28" r="8"/><circle cx="578" cy="50" r="8"/><circle cx="597" cy="70" r="8"/><circle cx="617" cy="50" r="8"/><circle cx="639" cy="28" r="8"/><circle cx="659" cy="8" r="8"/><circle cx="659" cy="53" r="8"/><circle cx="536" cy="53" r="8"/><circle cx="558" cy="73" r="8"/><circle cx="578" cy="95" r="8"/><circle cx="597" cy="115" r="8"/><circle cx="617" cy="95" r="8"/><circle cx="639" cy="73" r="8"/></g></svg>